<svg width="60" height="50" fill="none" xmlns="http://www.w3.org/2000/svg"><path fill-rule="evenodd" clip-rule="evenodd" d="M0 45.543a4.183 4.183 0 004.183 4.184H37.31a4.183 4.183 0 004.183-4.184V4.457A4.183 4.183 0 0037.309.274H4.184A4.183 4.183 0 000 4.457v41.086zm4.183.668a.668.668 0 01-.667-.668V4.457c0-.369.298-.668.667-.668H37.31c.368 0 .667.3.667.668v41.086a.668.668 0 01-.667.668H4.182zm45.03-.001c.467 0 .915-.185 1.244-.515a13.766 13.766 0 004.022-9.724V5.54a5.266 5.266 0 00-10.532 0v30.432c0 3.646 1.447 7.143 4.022 9.724.33.33.777.516 1.244.516zm0-4.51a10.25 10.25 0 01-1.75-5.729V5.54a1.75 1.75 0 013.5 0v30.432c0 2.056-.617 4.048-1.75 5.729z" fill="#1073E9"/><path fill-rule="evenodd" clip-rule="evenodd" d="M49.213 49.727c.97 0 1.758-.787 1.758-1.758v-3.516a1.758 1.758 0 00-3.516 0v3.516c0 .97.787 1.758 1.758 1.758zm9.029-37.919H45.705v3.515h12.537v-3.515z" fill="#1073E9"/><path fill-rule="evenodd" clip-rule="evenodd" d="M58.242 20.515c.971 0 1.758-.788 1.758-1.758V8.374a1.758 1.758 0 10-3.516 0v10.383c0 .97.787 1.758 1.758 1.758zm-5.521 13.698h-7.016v3.515h7.016v-3.515zM5.875 12.617a6.519 6.519 0 1013.038 0 6.519 6.519 0 00-13.038 0zm6.519 3.003a3.003 3.003 0 110-6.006 3.003 3.003 0 010 6.006z" fill="#1073E9"/><path fill-rule="evenodd" clip-rule="evenodd" d="M12.394 27.049c.563 0 1.092-.27 1.423-.726l2.55-3.515c.218-.3.335-.662.335-1.033v-5.1h-3.516v4.53l-.792 1.092-.792-1.092v-4.53H8.086v5.1c0 .371.117.732.335 1.033l2.55 3.515c.33.456.86.726 1.423.726zm10.1-17.084c0 .97.787 1.758 1.758 1.758H30a1.758 1.758 0 100-3.516h-5.748c-.97 0-1.758.787-1.758 1.758zm0 5.18c0 .97.787 1.757 1.758 1.757h9.073a1.758 1.758 0 000-3.515h-9.073c-.97 0-1.758.787-1.758 1.758zM5.875 35.621c0 .97.787 1.758 1.758 1.758h25.692a1.758 1.758 0 000-3.516H7.633c-.971 0-1.758.787-1.758 1.758zm0 5.859c0 .971.787 1.758 1.758 1.758h22.176a1.758 1.758 0 000-3.515H7.633c-.971 0-1.758.787-1.758 1.758z" fill="#1073E9"/></svg>