<svg width="60" height="60" fill="none" xmlns="http://www.w3.org/2000/svg"><path d="M58.242 4.33h-7.7c.028-.852.044-1.71.044-2.572C50.586.787 49.799 0 48.828 0H11.172c-.97 0-1.758.787-1.758 1.758 0 .862.015 1.72.043 2.572h-7.7C.788 4.33 0 5.117 0 6.088c0 7.876 2.059 15.307 5.796 20.925 3.695 5.553 8.616 8.738 13.933 9.048 1.205 1.311 2.479 2.38 3.806 3.196v7.813h-2.949a6.472 6.472 0 00-6.465 6.465v2.949h-.125a1.758 1.758 0 000 3.515h32.008a1.758 1.758 0 100-3.515h-.125v-2.95c0-3.564-2.9-6.464-6.465-6.464h-2.95v-7.813c1.328-.815 2.602-1.885 3.808-3.196 5.316-.31 10.237-3.495 13.932-9.048C57.942 21.395 60 13.964 60 6.088c0-.97-.787-1.758-1.758-1.758zM8.723 25.065C5.64 20.432 3.83 14.372 3.553 7.846h6.1c.635 8.023 2.518 15.439 5.461 21.325.47.938.96 1.823 1.468 2.657-2.924-1.104-5.63-3.412-7.859-6.763zm33.64 28.47v2.95H17.637v-2.95a2.953 2.953 0 012.95-2.95h18.827a2.953 2.953 0 012.95 2.95zM32.95 47.07h-5.898v-6.285c.966.254 1.95.387 2.949.387.998 0 1.983-.133 2.95-.387v6.285zm1.089-10.467a1.71 1.71 0 00-.228.115c-1.242.618-2.52.938-3.81.938s-2.567-.32-3.809-.937a1.761 1.761 0 00-.23-.117c-1.378-.729-2.712-1.83-3.973-3.276a1.774 1.774 0 00-.224-.261c-1.252-1.487-2.43-3.315-3.505-5.466-3.23-6.461-5.097-14.956-5.309-24.083h34.1c-.213 9.127-2.079 17.623-5.309 24.083-1.076 2.151-2.254 3.98-3.505 5.466-.083.08-.159.167-.225.262-1.26 1.446-2.595 2.547-3.973 3.276zm17.239-11.538c-2.23 3.351-4.935 5.66-7.86 6.763a36.21 36.21 0 001.468-2.657c2.944-5.886 4.827-13.302 5.461-21.325h6.101c-.276 6.526-2.087 12.586-5.17 17.22z" fill="#1073E9"/></svg>