<svg width="60" height="60" fill="none" xmlns="http://www.w3.org/2000/svg"><path fill-rule="evenodd" clip-rule="evenodd" d="M0 1.758C0 .787.787 0 1.758 0h41.719c.97 0 1.757.787 1.757 1.758v25.63a1.758 1.758 0 01-3.515 0V3.516H3.516v52.968h31.058a1.758 1.758 0 010 3.516H1.758A1.758 1.758 0 010 58.242V1.758z" fill="#1073E9"/><path fill-rule="evenodd" clip-rule="evenodd" d="M45.615 28.486a7.031 7.031 0 103.232 13.686 7.031 7.031 0 00-3.232-13.686zm-8.648 9.267c-1.339-5.67 2.172-11.35 7.84-12.689 5.67-1.338 11.35 2.172 12.689 7.841 1.339 5.67-2.172 11.35-7.84 12.689-5.67 1.338-11.35-2.172-12.69-7.841z" fill="#1073E9"/><path fill-rule="evenodd" clip-rule="evenodd" d="M36.445 7.031c.971 0 1.758.787 1.758 1.758v14.265a1.758 1.758 0 01-.82 3.313H7.852a1.758 1.758 0 01-.82-3.313v-7.346a1.758 1.758 0 013.515 0v7.144h3.398V9.023a1.758 1.758 0 113.516 0v13.829h3.398V11.676a1.758 1.758 0 013.516 0v11.176h3.398V12.89a1.758 1.758 0 013.516 0v9.96h3.398V8.79c0-.97.787-1.758 1.758-1.758zM7.031 35.156c0-.97.787-1.758 1.758-1.758h20.86a1.758 1.758 0 110 3.516H8.788c-.97 0-1.758-.787-1.758-1.758zm0 7.031c0-.97.787-1.758 1.758-1.758h20.86a1.758 1.758 0 110 3.516H8.788c-.97 0-1.758-.787-1.758-1.758zm27.43 1.993c0-.971.787-1.758 1.758-1.758h22.023c.971 0 1.758.787 1.758 1.758v7.03c0 .934-.727 1.697-1.645 1.755v5.277c0 .971-.786 1.758-1.757 1.758H34.574c-.97 0-1.758-.787-1.758-1.758v-7.031c0-.933.727-1.696 1.645-1.754V44.18zm1.87 8.789H54.84v3.515H36.332V52.97zm20.153-3.516H37.976v-3.516h18.508v3.516zM7.031 49.22c0-.971.787-1.758 1.758-1.758h8.79a1.758 1.758 0 010 3.515h-8.79c-.97 0-1.758-.787-1.758-1.757z" fill="#1073E9"/></svg>