<svg width="60" height="54" fill="none" xmlns="http://www.w3.org/2000/svg"><path fill-rule="evenodd" clip-rule="evenodd" d="M20.182 4.06a2.03 2.03 0 00-2.018 2.019v5.218a1.758 1.758 0 01-3.516 0V6.079A5.545 5.545 0 0120.182.545h19.636a5.545 5.545 0 015.534 5.534v5.218a1.758 1.758 0 01-3.516 0V6.079a2.03 2.03 0 00-2.018-2.018H20.182zm35.716 22.354c.971 0 1.758.787 1.758 1.758v20.01a5.284 5.284 0 01-5.273 5.273H7.617a5.284 5.284 0 01-5.273-5.273V28.289a1.758 1.758 0 113.515 0v19.893a1.77 1.77 0 001.758 1.758h44.766a1.77 1.77 0 001.758-1.758v-20.01c0-.97.787-1.758 1.757-1.758z" fill="#1073E9"/><path fill-rule="evenodd" clip-rule="evenodd" d="M5.273 13.377c-.965 0-1.757.792-1.757 1.758v8.32c0 2.012 1.782 4.08 6.035 5.817 4.092 1.672 9.768 2.715 15.862 3.063a1.758 1.758 0 11-.2 3.51c-6.304-.36-12.405-1.445-16.992-3.318C3.797 30.719 0 27.824 0 23.455v-8.32A5.28 5.28 0 015.273 9.86h49.454A5.28 5.28 0 0160 15.135v8.32c0 4.396-3.842 7.3-8.31 9.107-4.632 1.875-10.791 2.952-17.142 3.296a1.758 1.758 0 01-.19-3.51c6.14-.334 11.875-1.37 16.014-3.045 4.305-1.742 6.112-3.823 6.112-5.848v-8.32c0-.966-.792-1.758-1.757-1.758H5.273z" fill="#1073E9"/><path fill-rule="evenodd" clip-rule="evenodd" d="M23.906 30.604c0-.971.787-1.758 1.758-1.758h8.672c.97 0 1.758.787 1.758 1.758v4.043c0 3.194-2.607 5.8-5.801 5.8h-.586a5.813 5.813 0 01-5.8-5.8v-4.043zm3.516 1.757v2.286a2.297 2.297 0 002.285 2.285h.586a2.297 2.297 0 002.285-2.285V32.36h-5.156z" fill="#1073E9"/></svg>