<svg width="12" height="15" fill="none" xmlns="http://www.w3.org/2000/svg"><path fill-rule="evenodd" clip-rule="evenodd" d="M6.002 8.669a2.625 2.625 0 100-5.25 2.625 2.625 0 000 5.25zm0-1.165a1.46 1.46 0 110-2.92 1.46 1.46 0 010 2.92z" fill="#1073E9"/><path fill-rule="evenodd" clip-rule="evenodd" d="M11.409 7.256c.754-3.38-1.906-6.754-5.41-6.754-3.501 0-6.161 3.38-5.408 6.754.582 2.742 2.934 5.405 4.338 6.793a1.51 1.51 0 002.142 0c1.404-1.389 3.756-4.051 4.338-6.793zm-5.41-5.587c2.75 0 4.864 2.675 4.27 5.333-.284 1.277-.923 2.424-1.673 3.484A21.1 21.1 0 016.25 13.22a.344.344 0 01-.502 0 21.105 21.105 0 01-2.345-2.734c-.75-1.06-1.389-2.207-1.674-3.484C1.137 4.348 3.252 1.67 6 1.67z" fill="#1073E9"/></svg>