<svg width="16" height="21" fill="none" xmlns="http://www.w3.org/2000/svg"><mask id="a" maskUnits="userSpaceOnUse" x="-1" y=".374" width="18" height="20" fill="#000"><path fill="#fff" d="M-1 .374h18v20H-1z"/><path fill-rule="evenodd" clip-rule="evenodd" d="M8 1.374c4.428 0 7.79 4.266 6.837 8.538-.735 3.466-3.708 6.832-5.483 8.588a1.908 1.908 0 01-2.708 0c-1.775-1.756-4.748-5.121-5.484-8.587C.21 5.646 3.572 1.374 8 1.374zM8 11a3 3 0 100-6 3 3 0 000 6z"/></mask><path fill-rule="evenodd" clip-rule="evenodd" d="M8 1.374c4.428 0 7.79 4.266 6.837 8.538-.735 3.466-3.708 6.832-5.483 8.588a1.908 1.908 0 01-2.708 0c-1.775-1.756-4.748-5.121-5.484-8.587C.21 5.646 3.572 1.374 8 1.374zM8 11a3 3 0 100-6 3 3 0 000 6z" fill="#1073E9"/><path d="M14.837 9.912l-.976-.218-.002.01.978.208zM9.354 18.5l-.703-.711.703.71zm-2.708 0l-.704.71.704-.71zM1.162 9.913l.979-.208-.003-.01-.976.218zm14.651.217C16.905 5.24 13.075.374 8 .374v2c3.782 0 6.677 3.667 5.861 7.32l1.952.436zm-5.756 9.08c.913-.902 2.143-2.227 3.245-3.785 1.095-1.548 2.106-3.385 2.514-5.305l-1.957-.415c-.328 1.545-1.171 3.125-2.19 4.565-1.012 1.43-2.156 2.666-3.018 3.519l1.406 1.422zm-4.115 0a2.908 2.908 0 004.115 0l-1.406-1.42a.908.908 0 01-1.302 0l-1.407 1.42zM.184 10.12c.408 1.92 1.419 3.757 2.514 5.305 1.102 1.558 2.332 2.883 3.244 3.786l1.407-1.422c-.862-.853-2.006-2.088-3.018-3.519-1.02-1.44-1.863-3.02-2.19-4.565l-1.957.415zM8 .374C2.926.374-.904 5.245.186 10.131l1.952-.436C1.324 6.046 4.22 2.374 8 2.374v-2zM10 8a2 2 0 01-2 2v2a4 4 0 004-4h-2zM8 6a2 2 0 012 2h2a4 4 0 00-4-4v2zM6 8a2 2 0 012-2V4a4 4 0 00-4 4h2zm2 2a2 2 0 01-2-2H4a4 4 0 004 4v-2z" fill="#fff" mask="url(#a)"/></svg>