<svg width="182" height="36" fill="none" xmlns="http://www.w3.org/2000/svg"><path d="M95.331 8.469v8.53h-1.564V8.47h1.564zm4.213 0l-2.754 4.957h-1.857l-.217-1.465h1.213l1.705-3.492h1.91zm-1.646 8.53l-1.928-3.837 1.043-1.219L99.773 17h-1.875zm8.308-4.944v1.435c0 .602-.07 1.13-.211 1.582-.14.453-.343.832-.609 1.137a2.57 2.57 0 01-.955.68 3.211 3.211 0 01-1.231.228c-.453 0-.865-.076-1.236-.228a2.606 2.606 0 01-.961-.68 3.244 3.244 0 01-.621-1.137c-.144-.453-.217-.98-.217-1.582v-1.435c0-.614.073-1.15.217-1.612.145-.46.35-.845.615-1.154a2.6 2.6 0 01.961-.697c.371-.16.781-.24 1.231-.24.453 0 .863.08 1.23.24.371.156.69.388.955.697.27.309.475.693.615 1.154.145.461.217.998.217 1.612zm-1.558 1.435v-1.447c0-.418-.032-.777-.094-1.078a2.09 2.09 0 00-.281-.733 1.166 1.166 0 00-.463-.422 1.373 1.373 0 00-.621-.134c-.239 0-.45.045-.633.134-.18.09-.332.23-.457.422a2.171 2.171 0 00-.276.733c-.062.3-.093.66-.093 1.078v1.447c0 .41.031.762.093 1.055.063.293.157.531.282.715.129.183.283.32.463.41.183.086.394.129.632.129.235 0 .442-.043.621-.13.184-.089.336-.226.458-.41.125-.183.216-.421.275-.714a5.16 5.16 0 00.094-1.055zm3.457-5.021h1.4l1.858 6.093 1.839-6.093h1.272l-2.531 8.53h-1.172l-2.666-8.53zm-.545 0h1.318l.205 5.53v3h-1.523V8.47zm6.269 0h1.325v8.53h-1.524v-3l.199-5.53zm3.369 0h1.401l1.857 6.093 1.84-6.093h1.272l-2.532 8.53h-1.172l-2.666-8.53zm-.544 0h1.318l.205 5.53v3h-1.523V8.47zm6.269 0h1.324v8.53h-1.523v-3l.199-5.53zm7.647 7.224V17h-3.704v-1.307h3.704zm-3.252-7.224v8.53h-1.571V8.47h1.571zm2.753 3.504v1.271h-3.205v-1.271h3.205zm.475-3.504V9.78h-3.68V8.47h3.68zm3.973 5.449h-1.776v-1.313h1.77c.273 0 .492-.056.656-.17a.975.975 0 00.363-.486 1.96 1.96 0 00.118-.703c0-.254-.039-.492-.118-.715a1.14 1.14 0 00-.363-.545c-.164-.136-.381-.205-.65-.205h-1.301V17h-1.564V8.469h2.865c.566 0 1.052.119 1.459.357.406.238.717.566.931.984.219.415.329.89.329 1.424 0 .551-.11 1.028-.329 1.43a2.274 2.274 0 01-.937.926c-.402.219-.887.328-1.453.328zm3.937-5.449h1.565v2.63c0 .387.043.69.129.909a.849.849 0 00.404.457c.18.086.406.129.68.129.125 0 .265-.008.421-.024.161-.015.323-.035.487-.058a7.2 7.2 0 00.469-.094c.148-.04.275-.08.38-.123v1.3c-.105.047-.23.09-.375.13a6.559 6.559 0 01-.457.093 5.991 5.991 0 01-.925.077c-.563 0-1.051-.096-1.465-.288a2.096 2.096 0 01-.967-.902c-.231-.414-.346-.95-.346-1.605V8.469zm4.213 0h1.565v8.53h-1.565V8.47zm7.904 7.224V17h-3.703v-1.307h3.703zm-3.252-7.224v8.53h-1.57V8.47h1.57zm2.754 3.504v1.271h-3.205v-1.271h3.205zm.475-3.504V9.78h-3.68V8.47h3.68zm5.221 5.718h1.564c-.027.63-.156 1.163-.387 1.6a2.298 2.298 0 01-.978.99c-.422.227-.936.34-1.541.34-.461 0-.873-.08-1.236-.24a2.53 2.53 0 01-.926-.71 3.23 3.23 0 01-.574-1.136 5.68 5.68 0 01-.194-1.553v-1.482c0-.582.069-1.1.205-1.553.137-.453.332-.836.586-1.148.258-.313.571-.549.938-.71.367-.16.781-.24 1.242-.24.609 0 1.119.116 1.529.346.41.23.727.569.949 1.014.223.441.354.98.393 1.617h-1.564c-.016-.414-.067-.742-.153-.984-.086-.246-.22-.422-.404-.528-.184-.105-.434-.158-.75-.158-.246 0-.459.045-.639.135a1.06 1.06 0 00-.439.422 2.173 2.173 0 00-.252.72 5.811 5.811 0 00-.082 1.055v1.494c0 .395.023.739.07 1.032.047.293.121.537.223.732.105.191.246.336.422.434.175.094.394.14.656.14.316 0 .568-.046.756-.14.187-.098.326-.264.416-.498.094-.239.15-.569.17-.99zm4.306-5.718v8.53h-1.564V8.47h1.564zm4.213 0l-2.754 4.957h-1.857l-.217-1.465h1.213l1.705-3.492h1.91zm-1.646 8.53l-1.928-3.837 1.043-1.219 2.76 5.057h-1.875zm5.625-7.183L166.318 17h-1.653l2.69-8.531h1.031l-.117 1.347zM169.81 17l-1.951-7.184-.135-1.347h1.043l2.701 8.53h-1.658zm.053-3.176v1.307h-3.915v-1.307h3.915zm6.304.041h-1.763l-.586-.24c-.567-.211-1.002-.525-1.307-.943-.301-.422-.451-.956-.451-1.6 0-.567.107-1.043.322-1.43a2.1 2.1 0 01.92-.884c.402-.2.879-.3 1.43-.3h2.519V17h-1.57V9.78h-.949c-.383 0-.664.125-.844.375-.176.246-.264.594-.264 1.043 0 .313.041.576.123.791a.991.991 0 00.387.48c.172.106.387.159.645.159h1.382l.006 1.236zm-1.242-.685L173.32 17h-1.682l1.617-3.82h1.67zM98.448 24.973v1.306h-3.544v-1.306h3.544zm-3.134-3.504v8.53h-1.57v-8.53h1.57zm4.312 0v8.53h-1.558v-8.53h1.558zm6.322 7.224V30h-3.703v-1.307h3.703zm-3.252-7.224v8.53h-1.57v-8.53h1.57zm2.754 3.504v1.271h-3.205v-1.271h3.205zm.475-3.504v1.312h-3.68V21.47h3.68zm6.826 7.224V30h-5.097v-1.307h5.097zm-4.687 0v3.405h-1.489l-.076-3.405h1.565zm5.859 0l-.117 3.405h-1.453v-3.405h1.57zm-2.08-7.224v1.312h-3.363V21.47h3.363zm1.166 0v8.53h-1.559v-8.53h1.559zm-4.781 0h1.57l-.199 3.48a13.732 13.732 0 01-.147 1.5c-.066.438-.15.824-.252 1.16a5.779 5.779 0 01-.339.885 3.72 3.72 0 01-.827 1.143 4.41 4.41 0 01-.445.363h-.82v-1.307h.322c.094-.097.189-.23.287-.398.102-.172.195-.4.281-.686.086-.285.162-.644.229-1.078.066-.433.115-.96.146-1.582l.194-3.48zm9.504 4.746h-1.746l-.006-1.16h1.517c.235 0 .43-.043.586-.13.16-.09.28-.218.358-.386.082-.168.123-.373.123-.615 0-.274-.037-.492-.112-.657a.698.698 0 00-.339-.369c-.157-.078-.36-.117-.61-.117h-1.014V30h-1.57v-8.531h2.584c.414 0 .783.046 1.108.14.324.09.599.23.826.422.226.192.398.434.515.727.121.289.182.633.182 1.031 0 .351-.072.674-.217.967a1.78 1.78 0 01-.656.72c-.293.188-.668.295-1.125.323l-.404.416zM117.673 30h-2.162l.668-1.307h1.494c.242 0 .438-.05.586-.152a.911.911 0 00.34-.422c.074-.183.111-.395.111-.633a2.07 2.07 0 00-.099-.674.834.834 0 00-.311-.439c-.141-.106-.33-.158-.568-.158h-1.453l.011-1.16h1.811l.369.45c.43-.003.777.09 1.043.282.266.191.459.44.58.744.121.301.182.625.182.973 0 .543-.102 1-.305 1.37a1.987 1.987 0 01-.885.845c-.387.187-.857.28-1.412.28zm5.432-2.865l2.818-5.666h1.506v8.53H125.9v-5.618L123.099 30h-1.524v-8.531h1.53v5.666zm8.179-.709l-2.654-4.957h1.922l1.482 3.498h1.336l-.228 1.459h-1.858zm.745-.246L130.452 30h-1.945l2.303-4.84 1.219 1.02zm2.291-4.711v8.53h-1.565v-8.53h1.565zm4.072 0l-2.625 4.957h-1.828l-.235-1.46h1.313l1.453-3.497h1.922zm-1.828 8.53l-1.535-3.82 1.224-1.019 2.256 4.84h-1.945zm4.295-2.864l2.818-5.666h1.506v8.53h-1.529v-5.618L140.853 30h-1.524v-8.531h1.53v5.666zm6.375-5.666h1.4l1.857 6.093 1.84-6.093h1.272l-2.532 8.53H149.9l-2.666-8.53zm-.545 0h1.318l.205 5.53v3h-1.523v-8.53zm6.269 0h1.324v8.53h-1.523v-3l.199-5.53zm8.713 3.586v1.435c0 .602-.07 1.13-.211 1.582-.14.453-.344.832-.609 1.137a2.57 2.57 0 01-.955.68 3.215 3.215 0 01-1.231.228c-.453 0-.865-.076-1.236-.228a2.606 2.606 0 01-.961-.68 3.228 3.228 0 01-.621-1.137c-.145-.453-.217-.98-.217-1.582v-1.435c0-.614.072-1.15.217-1.612.144-.46.349-.845.615-1.154a2.6 2.6 0 01.961-.697c.371-.16.781-.24 1.231-.24.453 0 .863.08 1.23.24.371.156.689.388.955.697.27.309.475.693.615 1.154.145.461.217.998.217 1.612zm-1.558 1.435v-1.447c0-.418-.032-.777-.094-1.078a2.09 2.09 0 00-.281-.733 1.166 1.166 0 00-.463-.421 1.372 1.372 0 00-.621-.135c-.239 0-.45.045-.633.135-.18.09-.332.23-.457.421a2.171 2.171 0 00-.276.733c-.062.3-.093.66-.093 1.078v1.447c0 .41.031.762.093 1.055.063.293.157.531.282.715.128.183.283.32.462.41.184.086.395.129.633.129.235 0 .442-.043.621-.13.184-.089.336-.226.457-.41.125-.183.217-.421.276-.714a5.16 5.16 0 00.094-1.055zm7.025.697h1.564c-.027.63-.156 1.162-.386 1.6a2.306 2.306 0 01-.979.99c-.422.227-.935.34-1.541.34-.461 0-.873-.08-1.236-.24a2.53 2.53 0 01-.926-.71 3.247 3.247 0 01-.574-1.136 5.68 5.68 0 01-.194-1.553v-1.482c0-.582.069-1.1.205-1.553a3.34 3.34 0 01.586-1.148c.258-.313.571-.549.938-.71.367-.16.781-.24 1.242-.24.609 0 1.119.116 1.529.346.411.23.727.569.95 1.014.222.441.353.98.392 1.617h-1.564c-.016-.414-.067-.742-.153-.984-.086-.246-.22-.422-.404-.527-.183-.106-.433-.159-.75-.159-.246 0-.459.045-.639.135a1.06 1.06 0 00-.439.422 2.173 2.173 0 00-.252.72 5.811 5.811 0 00-.082 1.055v1.494c0 .395.023.739.07 1.032.047.293.121.537.223.732.105.191.246.336.422.434.176.094.394.14.656.14.317 0 .568-.046.756-.14.187-.098.326-.264.416-.498.094-.239.15-.569.17-.99zm5.789-5.718v8.53h-1.559v-8.53h1.559zm2.15 0v1.312h-5.824V21.47h5.824zm2.227 3.164h1.699c.559 0 1.041.11 1.447.328.407.219.719.527.938.926.219.398.328.867.328 1.406 0 .398-.062.764-.187 1.096a2.45 2.45 0 01-.545.855c-.235.242-.52.43-.856.563a3.089 3.089 0 01-1.125.193h-2.783v-8.531h1.57v7.224h1.213c.258 0 .471-.064.639-.193.172-.129.299-.3.381-.516.086-.219.129-.453.129-.703a1.7 1.7 0 00-.129-.68 1.035 1.035 0 00-.381-.48c-.168-.121-.381-.182-.639-.182h-1.699v-1.306zM4.663 7.16H.2V1.4h14.64v5.76h-4.416V35h-5.76V7.16zM18.222 1.4h13.104v5.76h-7.344v8.16h5.808v5.76h-5.808v8.16h7.392V35H18.222V1.4zM35.706 35V1.4h5.76v27.84h7.296V35H35.706zm16.36-33.6h5.807v26.832c0 .768.672 1.44 1.44 1.44a1.72 1.72 0 001.728-1.728V1.448h5.809v26.496a7.518 7.518 0 01-7.536 7.536c-3.984 0-7.248-3.264-7.248-7.248V1.4zM70.47 8.84c0-4.464 3.025-7.92 7.585-7.92a7.293 7.293 0 017.295 7.296v1.68h-5.855c0-1.536 0-3.168-1.729-3.168-1.2 0-1.44 1.248-1.44 2.208 0 6.768 9.025 9.216 9.025 18.288 0 4.416-2.928 8.256-7.585 8.256-4.032 0-7.248-3.312-7.248-7.296v-1.728h5.808c0 1.104-.287 3.216 1.44 3.216 1.105 0 1.776-1.104 1.776-2.112 0-6.624-9.072-9.216-9.072-18.72z" fill="#1073E9"/></svg>