<svg width="255" height="49" fill="none" xmlns="http://www.w3.org/2000/svg"><path d="M133.699 10.66v11.945h-2.19V10.66h2.19zm5.899 0l-3.856 6.94h-2.6l-.304-2.05h1.698l2.388-4.89h2.674zm-2.305 11.945l-2.699-5.373 1.46-1.707 3.864 7.08h-2.625zm11.633-6.924v2.01c0 .842-.098 1.58-.295 2.215-.197.635-.482 1.165-.853 1.592a3.57 3.57 0 01-1.338.951 4.494 4.494 0 01-1.723.32 4.52 4.52 0 01-1.731-.32 3.642 3.642 0 01-1.345-.951c-.372-.427-.662-.957-.87-1.592-.202-.634-.303-1.373-.303-2.215v-2.01c0-.859.101-1.61.303-2.256.203-.645.49-1.184.862-1.616a3.644 3.644 0 011.345-.976 4.306 4.306 0 011.723-.337c.634 0 1.209.112 1.723.336.519.22.965.545 1.337.977.377.432.665.97.862 1.616.202.645.303 1.397.303 2.256zm-2.182 2.01v-2.026c0-.585-.044-1.089-.131-1.51-.088-.421-.219-.763-.394-1.025a1.627 1.627 0 00-.648-.591 1.924 1.924 0 00-.87-.189c-.334 0-.629.063-.886.189a1.64 1.64 0 00-.64.59c-.169.263-.298.605-.386 1.026a7.563 7.563 0 00-.131 1.51v2.026c0 .574.044 1.067.131 1.477.088.41.219.744.394 1 .181.258.397.45.648.575.257.12.553.18.886.18.329 0 .618-.06.87-.18.257-.126.47-.317.64-.574.175-.257.304-.591.386-1.001a7.22 7.22 0 00.131-1.477zm4.84-7.031h1.961l2.601 8.532 2.576-8.532h1.78l-3.544 11.945h-1.641l-3.733-11.945zm-.763 0h1.846l.287 7.745v4.2h-2.133V10.66zm8.779 0h1.854v11.945h-2.133v-4.2l.279-7.745zm4.717 0h1.961l2.6 8.532 2.576-8.532h1.781l-3.545 11.945h-1.64l-3.733-11.945zm-.763 0h1.846l.287 7.745v4.2h-2.133V10.66zm8.778 0h1.854v11.945h-2.133v-4.2l.279-7.745zm10.706 10.116v1.83h-5.185v-1.83h5.185zm-4.553-10.116v11.945h-2.199V10.66h2.199zm3.856 4.906v1.78h-4.488v-1.78h4.488zm.665-4.906v1.838h-5.153V10.66h5.153zm5.562 7.63h-2.486v-1.838h2.478c.383 0 .689-.079.919-.238.235-.164.404-.39.508-.68.11-.29.164-.619.164-.985 0-.356-.054-.69-.164-1.001a1.599 1.599 0 00-.508-.763c-.23-.191-.534-.287-.911-.287h-1.821v10.107h-2.191V10.66h4.012c.793 0 1.474.167 2.043.5a3.333 3.333 0 011.304 1.379c.306.58.46 1.244.46 1.994 0 .77-.154 1.438-.46 2.001a3.19 3.19 0 01-1.312 1.297c-.564.306-1.242.459-2.035.459zm5.513-7.63h2.19v3.684c0 .541.061.965.181 1.272.126.3.314.514.566.64.252.12.569.18.952.18.175 0 .372-.011.59-.033.225-.022.452-.05.681-.082.23-.038.449-.082.657-.131.207-.055.385-.112.533-.173v1.822a3.665 3.665 0 01-.525.18c-.203.05-.416.093-.64.132a7.052 7.052 0 01-.673.082 8.582 8.582 0 01-.623.024c-.788 0-1.472-.134-2.051-.402a2.938 2.938 0 01-1.354-1.263c-.323-.58-.484-1.33-.484-2.248V10.66zm5.899 0h2.19v11.945h-2.19V10.66zm11.067 10.116v1.83h-5.185v-1.83h5.185zm-4.553-10.116v11.945h-2.199V10.66h2.199zm3.856 4.906v1.78h-4.488v-1.78h4.488zm.664-4.906v1.838h-5.152V10.66h5.152zm7.31 8.007h2.19c-.038.88-.218 1.627-.541 2.24a3.224 3.224 0 01-1.37 1.387c-.591.317-1.31.475-2.158.475-.645 0-1.222-.112-1.731-.336a3.54 3.54 0 01-1.296-.993c-.35-.432-.618-.962-.804-1.591-.181-.635-.271-1.36-.271-2.174v-2.076c0-.815.096-1.54.287-2.174.192-.635.465-1.17.821-1.608a3.488 3.488 0 011.312-.993c.514-.224 1.094-.336 1.74-.336.853 0 1.567.161 2.141.484a3.25 3.25 0 011.329 1.42c.312.617.495 1.372.55 2.264h-2.191c-.022-.58-.093-1.04-.213-1.379-.121-.344-.309-.59-.566-.738-.257-.148-.607-.222-1.05-.222-.345 0-.643.063-.895.19a1.488 1.488 0 00-.615.59c-.159.262-.276.599-.353 1.009-.076.41-.115.902-.115 1.477v2.092c0 .552.033 1.033.099 1.444.066.41.169.752.312 1.025a1.5 1.5 0 00.59.607c.246.131.553.197.919.197.443 0 .796-.066 1.058-.197.263-.137.457-.369.583-.697.131-.334.211-.796.238-1.387zm6.03-8.007v11.945h-2.191V10.66h2.191zm5.899 0l-3.856 6.94h-2.601l-.304-2.05h1.699l2.387-4.89h2.675zm-2.306 11.945l-2.699-5.373 1.46-1.707 3.864 7.08h-2.625zm7.876-10.058l-2.732 10.058h-2.313l3.765-11.945h1.444l-.164 1.887zm2.158 10.058l-2.732-10.058-.189-1.887h1.46l3.782 11.945h-2.321zm.074-4.446v1.83h-5.481v-1.83h5.481zm8.827.057h-2.469l-.821-.336c-.793-.296-1.403-.736-1.829-1.321-.421-.59-.632-1.337-.632-2.24 0-.793.15-1.46.451-2.002.301-.546.73-.96 1.288-1.238.564-.28 1.231-.419 2.002-.419h3.528v11.945h-2.199V12.498h-1.329c-.536 0-.93.175-1.181.525-.246.345-.369.831-.369 1.46 0 .438.057.807.172 1.108.12.295.301.52.541.673.241.147.542.221.903.221h1.936l.008 1.731zm-1.739-.96l-2.248 5.35h-2.355l2.265-5.35h2.338zM138.064 33.768v1.83h-4.963v-1.83h4.963zm-4.389-4.906v11.945h-2.199V28.862h2.199zm6.038 0v11.945h-2.182V28.862h2.182zm8.852 10.116v1.83h-5.185v-1.83h5.185zm-4.553-10.116v11.945h-2.199V28.862h2.199zm3.856 4.906v1.78h-4.488v-1.78h4.488zm.664-4.906V30.7h-5.152v-1.838h5.152zm9.558 10.116v1.83h-7.138v-1.83h7.138zm-6.563 0v4.766h-2.084l-.107-4.766h2.191zm8.204 0l-.164 4.766h-2.035v-4.766h2.199zm-2.913-10.116V30.7h-4.709v-1.838h4.709zm1.633 0v11.945h-2.182V28.862h2.182zm-6.695 0h2.199l-.279 4.873a19.044 19.044 0 01-.205 2.1c-.093.613-.21 1.155-.353 1.625-.142.47-.3.883-.476 1.239a5.128 5.128 0 01-.549.919 5.757 5.757 0 01-.607.68 6.366 6.366 0 01-.624.51h-1.148v-1.83h.451c.131-.137.265-.323.402-.558.142-.24.273-.56.394-.96.12-.4.227-.902.32-1.51a22.43 22.43 0 00.205-2.215l.27-4.873zm13.307 6.646h-2.444l-.009-1.625h2.125c.328 0 .602-.06.821-.18a1.17 1.17 0 00.5-.542c.115-.235.172-.522.172-.861 0-.383-.052-.69-.156-.92a.98.98 0 00-.475-.516c-.219-.11-.504-.164-.854-.164h-1.419v10.107h-2.199V28.862h3.618a5.6 5.6 0 011.551.197c.454.126.84.323 1.157.59.317.269.558.608.722 1.018.169.405.254.886.254 1.444 0 .492-.101.944-.304 1.354a2.5 2.5 0 01-.918 1.009c-.411.262-.936.413-1.576.451l-.566.583zm-.082 5.3h-3.027l.935-1.83h2.092c.339 0 .613-.071.821-.214.213-.142.372-.339.476-.59a2.35 2.35 0 00.155-.886c0-.361-.046-.676-.139-.944a1.166 1.166 0 00-.435-.615c-.197-.148-.462-.221-.796-.221h-2.034l.016-1.625h2.535l.517.632c.602-.006 1.088.126 1.46.394.372.268.643.615.813 1.041.169.422.254.876.254 1.362 0 .76-.142 1.4-.427 1.92a2.78 2.78 0 01-1.238 1.181c-.542.263-1.201.394-1.978.394zm7.605-4.013l3.947-7.933h2.108v11.945H176.5V32.94l-3.922 7.867h-2.133V28.862h2.141v7.933zm11.453-.992l-3.716-6.94h2.691l2.075 4.897h1.871l-.32 2.043h-2.601zm1.042-.345l-2.207 5.35h-2.723l3.224-6.777 1.706 1.427zm3.208-6.596v11.945h-2.191V28.862h2.191zm5.702 0l-3.676 6.94h-2.559l-.328-2.042h1.837l2.035-4.898h2.691zm-2.56 11.945l-2.149-5.349 1.714-1.427 3.159 6.776h-2.724zm6.014-4.012l3.946-7.933h2.108v11.945h-2.141V32.94l-3.922 7.867h-2.133V28.862h2.142v7.933zm8.926-7.933h1.96l2.601 8.532 2.576-8.532h1.78l-3.544 11.945h-1.641l-3.732-11.945zm-.763 0h1.846l.287 7.745v4.2h-2.133V28.862zm8.778 0h1.854v11.945h-2.133v-4.2l.279-7.745zm12.199 5.021v2.01c0 .842-.098 1.58-.295 2.215-.197.635-.481 1.165-.853 1.592a3.574 3.574 0 01-1.337.951c-.52.214-1.094.32-1.723.32a4.514 4.514 0 01-1.731-.32 3.646 3.646 0 01-1.346-.951c-.372-.427-.662-.957-.869-1.592-.203-.634-.304-1.373-.304-2.215v-2.01c0-.859.101-1.61.304-2.256.202-.645.489-1.184.861-1.616a3.644 3.644 0 011.345-.976 4.306 4.306 0 011.723-.337c.635 0 1.209.112 1.723.337.52.218.965.544 1.337.976.378.432.665.97.862 1.616.202.645.303 1.397.303 2.256zm-2.182 2.01v-2.026c0-.585-.044-1.089-.131-1.51-.088-.421-.219-.763-.394-1.025a1.627 1.627 0 00-.648-.591 1.923 1.923 0 00-.87-.189 1.99 1.99 0 00-.886.189 1.648 1.648 0 00-.64.59c-.169.263-.298.605-.385 1.026a7.483 7.483 0 00-.132 1.51v2.026c0 .574.044 1.067.132 1.477.087.41.219.744.394 1 .18.258.396.45.648.575.257.12.552.18.886.18.328 0 .618-.06.869-.18.257-.126.471-.317.64-.574.175-.257.304-.591.386-1.001a7.22 7.22 0 00.131-1.477zm9.837.977h2.19c-.038.88-.219 1.627-.541 2.239a3.23 3.23 0 01-1.37 1.386c-.591.318-1.31.476-2.158.476-.645 0-1.222-.112-1.731-.336a3.54 3.54 0 01-1.296-.993c-.35-.432-.618-.962-.804-1.591-.181-.635-.271-1.36-.271-2.174V33.8c0-.815.096-1.54.287-2.174.192-.634.465-1.17.821-1.608.36-.438.798-.768 1.312-.993.514-.224 1.094-.336 1.739-.336.854 0 1.567.161 2.142.484a3.25 3.25 0 011.329 1.42c.311.617.495 1.372.549 2.264h-2.19c-.022-.58-.093-1.04-.213-1.379-.121-.344-.309-.59-.566-.738-.258-.148-.608-.222-1.051-.222a1.98 1.98 0 00-.894.19 1.482 1.482 0 00-.615.59c-.159.262-.276.599-.353 1.009-.076.41-.115.902-.115 1.477v2.092c0 .552.033 1.033.099 1.444.065.41.169.752.311 1.025.148.268.345.47.591.607.246.131.553.197.919.197.443 0 .796-.066 1.058-.197.263-.137.457-.369.583-.697.131-.334.21-.796.238-1.387zm8.105-8.008v11.945h-2.182V28.862h2.182zm3.011 0V30.7h-8.155v-1.838h8.155zm3.118 4.43h2.379c.782 0 1.457.154 2.026.46a3.188 3.188 0 011.313 1.296c.306.558.459 1.214.459 1.969 0 .558-.087 1.07-.262 1.534-.175.46-.43.859-.763 1.198-.328.34-.728.602-1.198.787-.465.181-.99.271-1.575.271h-3.897V28.862h2.199v10.116h1.698c.361 0 .659-.09.894-.271.241-.18.418-.421.533-.722.121-.306.181-.634.181-.984 0-.356-.06-.673-.181-.952a1.448 1.448 0 00-.533-.673c-.235-.17-.533-.254-.894-.254h-2.379v-1.83zM6.75 8.828H.5V.763h20.498v8.065h-6.183v38.98H6.75V8.828zM25.734.763h18.348v8.065H33.799v11.425h8.132v8.065H33.8v11.425h10.35v8.065H25.734V.763zm24.481 47.045V.763h8.065v38.98h10.216v8.065h-18.28zM73.12.763h8.133v37.569c0 1.075.94 2.016 2.016 2.016a2.41 2.41 0 002.42-2.42V.83h8.132v37.1a10.527 10.527 0 01-10.552 10.55c-5.578 0-10.148-4.57-10.148-10.148V.762zM98.89 11.18c0-6.25 4.235-11.09 10.619-11.09 5.646 0 10.216 4.57 10.216 10.216v2.353h-8.2c0-2.151 0-4.436-2.419-4.436-1.68 0-2.016 1.747-2.016 3.091 0 9.477 12.635 12.904 12.635 25.606 0 6.183-4.1 11.56-10.619 11.56-5.645 0-10.148-4.637-10.148-10.215v-2.42h8.132c0 1.546-.403 4.503 2.016 4.503 1.546 0 2.487-1.546 2.487-2.957 0-9.275-12.703-12.904-12.703-26.211z" fill="#fff"/></svg>