<svg width="30" height="30" fill="none" xmlns="http://www.w3.org/2000/svg"><g clip-path="url(#clip0_624_17719)"><path d="M30 15c0 15 0 15-15 15S0 30 0 15 0 0 15 0s15 0 15 15z" fill="#FF7C1C"/><path d="M17.35 20.1a10.868 10.868 0 003.372-1.397 1.702 1.702 0 00-1.814-2.883 7.374 7.374 0 01-7.82 0 1.703 1.703 0 00-1.813 2.883 10.867 10.867 0 003.372 1.398l-3.243 3.246a1.7 1.7 0 001.201 2.903c.437 0 .87-.167 1.205-.498l3.19-3.19 3.19 3.19a1.7 1.7 0 002.406 0 1.7 1.7 0 000-2.405L17.35 20.1zM15 7.155a2.407 2.407 0 012.405 2.406 2.406 2.406 0 01-4.81 0A2.409 2.409 0 0115 7.154zm0 8.21a5.812 5.812 0 005.807-5.804A5.813 5.813 0 0015 3.75a5.813 5.813 0 00-5.807 5.807A5.813 5.813 0 0015 15.363z" fill="#fff"/></g><defs><clipPath id="clip0_624_17719"><path fill="#fff" d="M0 0h30v30H0z"/></clipPath></defs></svg>