<svg width="26" height="26" fill="none" xmlns="http://www.w3.org/2000/svg"><path d="M24.226 20.125c-.138 2.462-2.738 4.188-5.088 4.125-7.2-.712-13.512-7.488-16.575-13.713C.938 7.325 1.738 2.162 5.801 1.75c.65 0 1.275.275 1.662.837l2.612 3.675c.5.713.863 1.5.376 2.276-.263.487-1.088 1.25-1.488 1.687-.262.238-.2.65-.05.938 1.35 2.075 3.813 4.587 5.912 5.9.276.162.713.212.95-.05.688-.638 1.475-1.713 2.463-1.713.525 0 1 .262 1.475.587l3.725 2.638c.55.375.775.95.788 1.6z" stroke="#fff" stroke-width="2" stroke-miterlimit="10"/></svg>