<svg width="20" height="20" fill="none" xmlns="http://www.w3.org/2000/svg"><path d="M18.233 15.425c-.1 1.806-2.008 3.071-3.73 3.025-5.28-.522-9.91-5.49-12.156-10.056C1.155 6.04 1.742 2.253 4.721 1.95c.477 0 .935.202 1.22.614L7.855 5.26c.367.523.633 1.1.275 1.669-.192.357-.797.916-1.09 1.237-.193.174-.147.477-.037.688.99 1.521 2.796 3.364 4.336 4.326.201.12.522.156.696-.036.505-.468 1.082-1.256 1.806-1.256.385 0 .733.192 1.082.43l2.732 1.935c.403.275.568.696.577 1.173z" stroke="#01DB7D" stroke-width="2" stroke-miterlimit="10"/></svg>