<svg width="23" height="23" fill="none" xmlns="http://www.w3.org/2000/svg"><path d="M16.167 18.5h3.5A2.34 2.34 0 0022 16.167V8.583a2.34 2.34 0 00-2.333-2.333H3.333A2.34 2.34 0 001 8.583v7.584A2.34 2.34 0 003.333 18.5h3.5m11.084-4.083H5.083m0-4.084H8m9.333-4.083H5.667V3.333A2.34 2.34 0 018 1h7a2.34 2.34 0 012.333 2.333V6.25zM13.833 22H9.167a2.34 2.34 0 01-2.334-2.333v-5.25h9.334v5.25A2.34 2.34 0 0113.833 22z" stroke="#1073E9" stroke-miterlimit="10" stroke-linecap="round" stroke-linejoin="round"/></svg>