<svg width="30" height="30" fill="none" xmlns="http://www.w3.org/2000/svg"><g clip-path="url(#clip0_624_17734)"><path d="M26.25 0H3.75A3.75 3.75 0 000 3.75v22.5A3.75 3.75 0 003.75 30h22.5A3.75 3.75 0 0030 26.25V3.75A3.75 3.75 0 0026.25 0z" fill="#00AFF0"/><path d="M24.267 16.633c.1-.533.133-1.066.133-1.633 0-5.2-4.2-9.4-9.4-9.4-.567 0-1.1.033-1.633.133A5.623 5.623 0 0010.6 5C7.5 5 5 7.5 5 10.6c0 1 .267 1.967.733 2.767A8.764 8.764 0 005.6 15c0 5.2 4.2 9.4 9.4 9.4.567 0 1.1-.033 1.633-.133A5.623 5.623 0 0019.4 25c3.1 0 5.6-2.5 5.6-5.6 0-1-.267-1.933-.733-2.767z" fill="#fff"/><path d="M16.87 14.01l-2.31-.513c-.88-.22-1.87-.477-1.87-1.32 0-.844.696-1.43 1.98-1.43 2.603 0 2.383 1.796 3.666 1.796.66 0 1.247-.366 1.247-1.063 0-1.613-2.567-2.823-4.767-2.823-2.347 0-4.84.953-4.84 3.666 0 1.284.44 2.677 2.97 3.337l3.153.807c.954.22 1.247.77 1.247 1.246 0 .807-.843 1.687-2.273 1.687-2.824 0-2.42-2.237-3.924-2.237-.66 0-1.21.477-1.21 1.137 0 1.32 1.614 3.117 5.134 3.117 3.373 0 5.06-1.687 5.06-3.887-.037-1.467-.697-2.933-3.264-3.52z" fill="#00AFF0"/></g><defs><clipPath id="clip0_624_17734"><path fill="#fff" d="M0 0h30v30H0z"/></clipPath></defs></svg>