<svg width="30" height="30" fill="none" xmlns="http://www.w3.org/2000/svg"><g clip-path="url(#clip0_624_17739)"><path d="M26.25 0H3.75A3.75 3.75 0 000 3.75v22.5A3.75 3.75 0 003.75 30h22.5A3.75 3.75 0 0030 26.25V3.75A3.75 3.75 0 0026.25 0z" fill="#34AADF"/><path d="M5.226 14.403s8.846-3.731 11.914-5.045c1.175-.526 5.164-2.208 5.164-2.208s1.84-.736 1.687 1.051c-.051.736-.46 3.312-.87 6.097-.613 3.943-1.278 8.252-1.278 8.252s-.102 1.21-.971 1.42c-.87.21-2.3-.736-2.556-.946-.205-.158-3.835-2.523-5.165-3.68-.358-.315-.767-.946.051-1.682 1.841-1.734 4.04-3.89 5.37-5.256.613-.63 1.226-2.102-1.33-.315-3.63 2.575-7.21 4.993-7.21 4.993s-.818.526-2.352.053a104.335 104.335 0 01-3.323-1.104s-1.227-.789.87-1.63z" fill="#fff"/></g><defs><clipPath id="clip0_624_17739"><path fill="#fff" d="M0 0h30v30H0z"/></clipPath></defs></svg>