<svg width="25" height="22" fill="none" xmlns="http://www.w3.org/2000/svg"><path d="M2.41 9.71s10.172-4.39 13.7-5.936c1.353-.619 5.94-2.597 5.94-2.597s2.116-.866 1.94 1.236c-.06.866-.53 3.896-1 7.173-.706 4.638-1.47 9.709-1.47 9.709s-.118 1.422-1.117 1.67c-1 .247-2.646-.866-2.94-1.114-.236-.185-4.41-2.968-5.939-4.328-.412-.371-.882-1.113.059-1.979 2.117-2.04 4.645-4.576 6.174-6.184.705-.742 1.41-2.473-1.529-.37-4.175 3.03-8.29 5.874-8.29 5.874s-.942.618-2.706.061c-1.764-.556-3.822-1.298-3.822-1.298s-1.41-.928 1-1.917z" stroke="#fff" stroke-width="2" stroke-miterlimit="10"/></svg>