<svg width="30" height="30" fill="none" xmlns="http://www.w3.org/2000/svg"><g clip-path="url(#clip0_624_17725)"><path d="M26.25 0H3.75A3.75 3.75 0 000 3.75v22.5A3.75 3.75 0 003.75 30h22.5A3.75 3.75 0 0030 26.25V3.75A3.75 3.75 0 0026.25 0z" fill="#7B519D"/><path fill-rule="evenodd" clip-rule="evenodd" d="M23.885 19.697c-.653-.516-1.351-.979-2.039-1.451-1.37-.944-2.623-1.017-3.646.5-.574.853-1.378.89-2.218.516-2.317-1.03-4.107-2.617-5.155-4.926-.463-1.021-.457-1.937.627-2.66.575-.382 1.153-.834 1.107-1.669-.06-1.088-2.756-4.726-3.821-5.11-.44-.16-.88-.15-1.328-.001-2.496.823-3.53 2.836-2.54 5.219 2.954 7.11 8.154 12.06 15.31 15.082.409.172.862.241 1.091.303 1.63.016 3.539-1.523 4.09-3.05.53-1.47-.59-2.053-1.478-2.753zM15.86 5.626c5.232.788 7.645 3.228 8.312 8.394.061.477-.12 1.195.575 1.209.725.013.55-.694.557-1.172.061-4.866-4.267-9.377-9.293-9.543-.379.053-1.163-.257-1.212.577-.033.561.628.47 1.061.535z" fill="#fff"/><path fill-rule="evenodd" clip-rule="evenodd" d="M16.774 7.088c-.494-.06-1.145-.3-1.26.404-.121.738.605.663 1.072.77 3.168.728 4.272 1.913 4.793 5.143.076.47-.075 1.203.704 1.082.577-.09.369-.719.417-1.086.025-3.1-2.56-5.922-5.726-6.313z" fill="#fff"/><path fill-rule="evenodd" clip-rule="evenodd" d="M17.246 9.5c-.3.009-.594.045-.704.398-.165.529.183.655.537.717 1.181.21 1.803.98 1.921 2.282.032.353.235.64.544.6.428-.057.467-.478.454-.878.021-1.463-1.475-3.153-2.752-3.118z" fill="#fff"/></g><defs><clipPath id="clip0_624_17725"><path fill="#fff" d="M0 0h30v30H0z"/></clipPath></defs></svg>