<svg width="30" height="30" fill="none" xmlns="http://www.w3.org/2000/svg"><g clip-path="url(#clip0_624_17716)"><path d="M.325 14.409c0-6.688 0-10.033 2.078-12.11C4.48.22 7.825.22 14.51.22h1.183c6.687 0 10.03 0 12.108 2.077 2.078 2.078 2.078 5.423 2.078 12.11v1.183c0 6.689 0 10.033-2.078 12.11-2.077 2.078-5.422 2.078-12.108 2.078H14.51c-6.687 0-10.03 0-12.108-2.077C.325 25.624.325 22.279.325 15.592v-1.183z" fill="#07F"/><path d="M16.05 21.515c-6.735 0-10.577-4.618-10.738-12.304h3.375c.11 5.641 2.598 8.03 4.568 8.523V9.211h3.177v4.865c1.946-.21 3.99-2.426 4.68-4.865h3.177c-.53 3.006-2.746 5.223-4.322 6.134 1.576.739 4.1 2.672 5.06 6.17H21.53c-.75-2.34-2.623-4.15-5.098-4.397v4.397h-.381z" fill="#fff"/></g><defs><clipPath id="clip0_624_17716"><path fill="#fff" transform="translate(0 .22)" d="M0 0h30v29.559H0z"/></clipPath></defs></svg>