<svg width="30" height="30" fill="none" xmlns="http://www.w3.org/2000/svg"><g clip-path="url(#clip0_624_17731)"><path d="M26.25 0H3.75A3.75 3.75 0 000 3.75v22.5A3.75 3.75 0 003.75 30h22.5A3.75 3.75 0 0030 26.25V3.75A3.75 3.75 0 0026.25 0z" fill="#00D95F"/><path d="M4 26l1.58-5.864a10.828 10.828 0 01-1.14-7.507 10.856 10.856 0 014.073-6.417 10.922 10.922 0 0114.246.92 10.833 10.833 0 011.107 14.185 10.899 10.899 0 01-6.386 4.141 10.93 10.93 0 01-7.547-1.039L4 26zm6.22-3.775l.366.217a8.831 8.831 0 0010.667-1.293 8.753 8.753 0 001.473-10.608 8.798 8.798 0 00-4.252-3.747 8.834 8.834 0 00-5.662-.385 8.808 8.808 0 00-4.721 3.138 8.758 8.758 0 00-1.82 5.358 8.656 8.656 0 001.286 4.55l.23.377-.883 3.273 3.315-.88z" fill="#fff"/><path fill-rule="evenodd" clip-rule="evenodd" d="M19.265 16.606a1.784 1.784 0 00-1.54-.359c-.401.17-.66.812-.919 1.133a.375.375 0 01-.493.113 7.026 7.026 0 01-3.488-3.052.434.434 0 01.056-.592c.288-.292.5-.653.616-1.05a2.332 2.332 0 00-.284-1.26 2.952 2.952 0 00-.893-1.378 1.208 1.208 0 00-1.325.207 2.77 2.77 0 00-.717.993c-.163.38-.24.795-.226 1.21 0 .234.03.467.086.693.143.544.363 1.063.653 1.542.21.367.438.722.684 1.064a10.598 10.598 0 002.965 2.807c.58.372 1.2.674 1.849.9a4.017 4.017 0 002.15.346 2.554 2.554 0 001.155-.491 2.62 2.62 0 00.793-.988c.106-.236.139-.5.093-.755-.111-.523-.796-.831-1.215-1.083z" fill="#fff"/></g><defs><clipPath id="clip0_624_17731"><path fill="#fff" d="M0 0h30v30H0z"/></clipPath></defs></svg>