<svg width="30" height="30" fill="none" xmlns="http://www.w3.org/2000/svg"><g clip-path="url(#clip0_624_17722)"><path d="M26.25 0H3.75A3.75 3.75 0 000 3.75v22.5A3.75 3.75 0 003.75 30h22.5A3.75 3.75 0 0030 26.25V3.75A3.75 3.75 0 0026.25 0z" fill="#000"/><path d="M21.72 5h3.45l-7.537 8.472L26.5 25h-6.943l-5.438-6.992L7.897 25H4.444l8.063-9.062L4 5h7.12l4.915 6.39L21.72 5zm-1.21 17.97h1.91L10.08 6.923H8.03l12.48 16.045z" fill="#fff"/></g><defs><clipPath id="clip0_624_17722"><path fill="#fff" d="M0 0h30v30H0z"/></clipPath></defs></svg>